<svg width="497" height="493" viewBox="0 0 497 493" fill="none" xmlns="http://www.w3.org/2000/svg">
<ellipse cx="250.783" cy="249.164" rx="235.561" ry="234.42" fill="white"/>
<path d="M8.25407 184.811C9.42086 180.839 10.451 176.978 11.7845 173.225C14.148 166.573 16.4855 159.898 19.2251 153.398C22.0042 146.804 25.0604 140.308 28.3603 133.959C31.2988 128.305 34.628 122.844 37.9864 117.422C40.9824 112.586 44.1272 107.829 47.4436 103.207C50.1751 99.4006 53.2522 95.8419 56.1797 92.1763C62.7914 83.8979 70.1764 76.3309 77.8112 69.0172C81.7252 65.2678 85.9517 61.843 90.0617 58.3002C97.5731 51.8252 105.641 46.0946 113.992 40.775C118.831 37.6921 123.812 34.8211 128.808 31.9942C133.047 29.5952 137.292 27.1557 141.728 25.1643C148.609 22.0754 155.612 19.247 162.643 16.5103C167.488 14.6242 172.435 12.9816 177.393 11.4098C182.467 9.80163 187.566 8.23242 192.735 6.98151C197.307 5.87527 201.984 5.19455 206.625 4.39195C211.189 3.60285 215.758 2.83305 220.342 2.17973C222.832 1.8248 225.356 1.66398 227.871 1.53059C234.579 1.17487 241.288 0.80284 248.001 0.590568C252.54 0.447017 257.09 0.483011 261.632 0.589227C265.1 0.670345 268.569 0.925716 272.028 1.21532C276.312 1.57405 280.609 1.89904 284.861 2.5126C289.52 3.18495 294.126 4.21435 298.769 5.00853C307.342 6.47482 315.755 8.57412 324.003 11.3159C330.618 13.515 337.244 15.6966 343.782 18.1105C347.406 19.4485 350.882 21.2012 354.385 22.8503C358.56 24.8151 362.762 26.7379 366.828 28.9115C375.499 33.5472 384.009 38.4626 391.978 44.2612C395.636 46.9235 399.428 49.409 403.006 52.1737C406.46 54.8427 409.819 57.6558 413.037 60.6048C418.834 65.9183 424.665 71.2152 430.16 76.8341C434.408 81.1784 438.184 85.9873 442.135 90.6192C447.911 97.3906 453.064 104.631 457.857 112.114C461.14 117.239 464.192 122.517 467.203 127.809C469.612 132.043 472.043 136.293 474.033 140.729C477.02 147.387 479.731 154.175 482.361 160.983C484.165 165.651 485.805 170.398 487.206 175.2C488.759 180.522 489.984 185.94 491.296 191.329C492.096 194.614 492.881 197.908 493.508 201.228C494.06 204.157 494.427 207.124 494.797 210.084C495.366 214.633 495.877 219.189 496.393 223.744C496.537 225.022 496.686 226.306 496.705 227.589C496.834 236.349 497.002 245.109 497 253.868C496.999 257.493 496.691 261.125 496.376 264.74C496.053 268.445 495.658 272.15 495.099 275.825C494.359 280.688 493.483 285.531 492.565 290.364C491.569 295.612 490.62 300.877 489.351 306.061C488.18 310.842 486.741 315.569 485.189 320.242C483.101 326.527 481.116 332.878 478.495 338.945C475.363 346.192 471.762 353.252 468.072 360.239C465.004 366.049 461.637 371.711 458.173 377.297C455.484 381.633 452.51 385.798 449.537 389.95C446.973 393.531 444.278 397.023 441.553 400.485C439.803 402.71 437.983 404.893 436.04 406.949C430.764 412.533 425.531 418.166 420.039 423.534C416.203 427.283 411.987 430.646 407.912 434.148C400.353 440.646 392.226 446.384 383.868 451.784C379.298 454.736 374.562 457.44 369.822 460.117C365.839 462.367 361.842 464.639 357.673 466.505C349.803 470.026 341.849 473.37 333.843 476.572C329.518 478.302 325.056 479.727 320.581 481.036C314.323 482.868 308.035 484.629 301.687 486.113C296.136 487.41 290.499 488.362 284.874 489.317C280.928 489.987 276.947 490.48 272.967 490.914C269.132 491.331 265.28 491.612 261.431 491.876C258.828 492.055 256.217 492.137 253.608 492.201C248.243 492.331 242.874 492.584 237.512 492.479C232.337 492.378 227.162 491.964 221.999 491.546C218.398 491.254 214.791 490.874 211.233 490.265C205.12 489.22 198.998 488.154 192.96 486.752C185.105 484.928 177.26 482.998 169.542 480.677C163.78 478.944 158.172 476.651 152.594 474.367C146.474 471.86 140.339 469.329 134.443 466.349C127.58 462.881 120.812 459.167 114.292 455.096C107.33 450.75 100.634 445.966 93.965 441.172C90.598 438.752 87.4719 435.975 84.3742 433.206C79.9339 429.237 75.5129 425.234 71.28 421.047C66.8066 416.622 62.3857 412.12 58.2586 407.375C50.7151 398.704 43.8512 389.488 37.6672 379.798C34.5042 374.842 31.5803 369.721 28.7797 364.549C25.9268 359.281 23.0315 353.995 20.7407 348.473C17.2672 340.101 14.096 331.587 11.1893 323.001C9.22843 317.208 7.82372 311.216 6.39907 305.258C5.43299 301.218 4.87376 297.081 4.11418 292.991C3.49288 289.645 2.7728 286.316 2.23358 282.958C1.88505 280.787 1.78205 278.577 1.57185 276.384C1.14643 271.946 0.722474 267.508 0.300553 263.07C0.285564 262.912 0.300918 262.751 0.298323 262.592C0.192633 256.113 0.0394029 249.634 0.00146673 243.154C-0.01597 240.176 0.124045 237.192 0.315732 234.219C0.563938 230.368 0.82541 226.513 1.28259 222.684C1.79114 218.424 2.47159 214.182 3.1763 209.949C4.07443 204.555 4.99997 199.162 6.05492 193.797C6.63918 190.825 7.51156 187.91 8.25407 184.811ZM333.312 453.386C337.418 451.614 341.584 449.968 345.612 448.035C349.735 446.056 353.767 443.876 357.757 441.636C362.2 439.142 366.624 436.599 370.924 433.869C377.823 429.488 384.525 424.812 390.747 419.491C395.415 415.5 400.261 411.687 404.644 407.403C410.227 401.947 415.485 396.153 420.76 390.392C423.493 387.407 426.123 384.299 428.511 381.035C432.508 375.573 436.419 370.037 440.091 364.354C443.255 359.456 446.146 354.371 448.948 349.254C451.043 345.427 452.842 341.434 454.7 337.481C456.348 333.977 458.118 330.507 459.438 326.877C462.038 319.726 464.504 312.519 466.762 305.252C468.707 298.99 470.335 292.632 471.291 286.114C471.863 282.207 472.851 278.362 473.456 274.458C474.025 270.785 474.437 267.08 474.733 263.374C475.063 259.229 475.307 255.068 475.371 250.911C475.507 242.068 475.45 233.226 474.453 224.418C474.164 221.863 474.141 219.274 473.778 216.731C473.132 212.199 472.384 207.679 471.558 203.176C470.883 199.5 470.16 195.824 469.235 192.206C467.137 184 464.873 175.834 461.694 167.968C459.051 161.427 456.373 154.893 453.467 148.467C451.444 143.993 449.141 139.63 446.724 135.353C443.461 129.578 440.136 123.824 436.525 118.265C433.163 113.09 429.513 108.093 425.063 103.741C422.735 101.465 420.531 99.0599 418.303 96.6826C415.733 93.9394 413.308 91.0503 410.621 88.429C407.307 85.1968 403.819 82.1391 400.346 79.0747C397.686 76.728 395.015 74.3809 392.201 72.2267C388.485 69.3818 384.733 66.5563 380.802 64.0249C373.793 59.5109 366.745 55.0337 359.505 50.9077C354.614 48.1207 349.413 45.8565 344.264 43.5539C339.659 41.495 335.012 39.4778 330.245 37.8464C322.69 35.2608 315.064 32.9181 307.28 31.0133C299.345 29.0712 291.334 27.6713 283.294 26.3749C279.367 25.7417 275.385 25.4044 271.415 25.0898C267.375 24.7695 263.321 24.5059 259.271 24.4651C254.596 24.4179 249.913 24.5294 245.244 24.7762C239.474 25.0812 233.712 25.5646 227.952 26.0335C224.949 26.278 221.933 26.5164 218.965 27.0085C214.628 27.7275 210.304 28.5647 206.019 29.5481C200.614 30.7886 195.207 32.065 189.888 33.6244C184.329 35.2541 178.801 37.0477 173.392 39.1164C166.851 41.618 160.388 44.3468 154.009 47.2382C149.491 49.286 145.101 51.6459 140.78 54.0877C136.335 56.5992 131.989 59.297 127.694 62.06C120.331 66.7964 113.229 71.901 106.637 77.6814C102.159 81.6075 97.6214 85.471 93.2586 89.5217C90.4483 92.1311 87.8616 94.9882 85.2561 97.8095C82.7964 100.473 80.3329 103.146 78.0673 105.972C73.9697 111.083 69.9418 116.254 66.0232 121.503C59.8883 129.722 54.7033 138.548 49.9741 147.628C47.3472 152.672 44.913 157.83 42.6635 163.053C40.4552 168.181 38.3547 173.381 36.6348 178.687C34.4615 185.393 32.6062 192.209 30.8316 199.035C29.4927 204.184 28.3396 209.394 27.3934 214.629C26.5377 219.364 25.9782 224.16 25.4664 228.948C25.0116 233.203 24.5589 237.483 24.5343 241.755C24.4854 250.26 24.1158 258.779 25.1074 267.267C25.4999 270.627 25.6988 274.009 26.0889 277.369C26.5569 281.399 26.9719 285.447 27.7049 289.432C28.7136 294.918 29.7897 300.408 31.2222 305.794C32.7761 311.637 34.7998 317.353 36.5691 323.14C39.4643 332.609 43.5883 341.56 48.0495 350.363C49.9863 354.185 51.9591 358.006 54.2068 361.648C57.6622 367.247 61.2537 372.77 65.006 378.174C67.8943 382.333 71.0346 386.327 74.2213 390.266C76.6325 393.247 79.2522 396.063 81.8541 398.884C85.3313 402.653 88.7591 406.48 92.4342 410.05C96.076 413.587 100.004 416.83 103.796 420.212C106.897 422.979 109.96 425.789 113.095 428.516C113.869 429.189 114.794 429.842 115.76 430.111C118.214 430.796 120.194 432.206 122.319 433.53C128.949 437.66 135.681 441.647 142.543 445.375C147.362 447.993 152.407 450.221 157.449 452.395C162.261 454.47 167.144 456.415 172.1 458.114C177.452 459.95 182.887 461.579 188.357 463.031C193.685 464.446 199.086 465.611 204.489 466.719C207.894 467.418 211.357 467.849 214.803 468.332C218.873 468.904 222.946 469.47 227.032 469.91C230.061 470.237 233.113 470.546 236.153 470.534C245.136 470.499 254.133 470.961 263.096 469.939C268.07 469.373 273.068 468.998 278.024 468.306C282.945 467.62 287.864 466.817 292.716 465.754C299.201 464.334 305.704 462.887 312.045 460.95C319.17 458.774 326.125 456.037 333.312 453.386Z" fill="#054135"/>
<path d="M138.802 75.4237C143.597 72.6442 148.272 69.8701 153.037 67.2603C162.063 62.3162 171.55 58.4018 181.404 55.4906C187.297 53.7498 193.324 52.4026 199.357 51.2178C204.075 50.2913 208.885 49.7965 213.673 49.2904C215.894 49.0557 218.168 49.1305 220.404 49.2811C223.125 49.4644 224.458 51.2996 224.944 53.7892C225.416 56.2084 226.567 58.2992 227.677 60.4603C229.759 64.5162 231.587 68.7021 233.558 72.8161C234.916 75.6501 236.296 78.4754 237.772 81.2485C237.994 81.6653 238.818 82.0325 239.321 81.9835C241.943 81.7279 244.555 81.353 247.164 80.9742C248.854 80.7288 250.525 80.3453 252.218 80.129C256.87 79.5343 261.535 79.7113 266.133 80.4779C270.702 81.2395 275.284 82.1021 279.725 83.3871C282.561 84.2079 285.223 85.7507 287.827 87.2128C289.348 88.0665 290.334 87.8033 291.24 86.5405C294.933 81.3921 298.601 76.2255 302.288 71.0726C304.485 68.0021 306.732 64.9663 308.887 61.867C309.468 61.0321 309.789 60.0187 310.243 59.0937C311.187 57.1712 314.132 55.6904 316.113 56.2641C322.217 58.0318 328.35 59.7201 334.388 61.6956C341.923 64.1608 349.09 67.507 355.923 71.535C360.491 74.2279 365.121 76.8393 369.511 79.8022C373.908 82.7698 378.209 85.9304 382.247 89.3654C387.566 93.8907 392.778 98.5783 397.677 103.55C401.718 107.65 405.401 112.136 408.943 116.684C412.993 121.886 416.841 127.257 420.543 132.714C425.844 140.528 430.159 148.919 434.159 157.455C437.719 165.052 440.907 172.823 443.262 180.885C445.327 187.952 447.226 195.075 448.937 202.236C450.135 207.245 450.954 212.348 451.82 217.43C452.198 219.648 452.299 221.915 452.479 224.163C452.817 228.378 453.241 232.591 453.41 236.814C453.635 242.44 453.813 248.077 453.71 253.704C453.615 258.88 453.339 264.073 452.747 269.213C452.027 275.474 451.194 281.752 449.86 287.904C448.323 294.996 446.44 302.039 444.237 308.953C442.096 315.671 439.62 322.312 436.824 328.785C432.429 338.963 426.974 348.61 420.623 357.703C417.714 361.867 414.503 365.841 411.201 369.706C407.678 373.829 404.068 377.913 400.159 381.661C396.192 385.466 391.923 388.983 387.582 392.362C383.342 395.661 378.868 398.663 374.449 401.728C371.253 403.944 367.069 402.393 366.159 399.728C365.113 396.666 365.954 394.651 368.662 392.665C372.969 389.506 377.555 386.73 381.936 383.669C383.946 382.265 385.838 380.661 387.63 378.983C391.285 375.561 395.067 372.232 398.372 368.49C402.83 363.443 406.986 358.119 411.091 352.775C416.187 346.142 420.252 338.838 424.035 331.412C428.627 322.397 432.311 312.966 435.236 303.289C437.17 296.892 438.586 290.331 440.029 283.797C440.715 280.69 440.947 277.48 441.341 274.311C441.894 269.866 442.672 265.429 442.878 260.967C443.209 253.809 443.289 246.631 443.207 239.464C443.154 234.873 442.747 230.274 442.266 225.703C441.795 221.229 441.146 216.766 440.36 212.336C439.551 207.774 438.672 203.207 437.482 198.733C435.864 192.642 434.104 186.576 432.065 180.615C430.196 175.149 428.022 169.775 425.711 164.478C423.632 159.713 421.343 155.023 418.866 150.452C415.094 143.493 411.076 136.663 406.182 130.408C402.474 125.67 398.826 120.875 394.9 116.322C391.34 112.196 387.622 108.169 383.646 104.448C378.052 99.2129 372.142 94.3364 365.829 89.9378C360.148 85.9808 354.258 82.4209 348.167 79.1574C340.355 74.9711 332.093 71.8729 323.742 68.9881C323.552 68.9226 323.307 69.027 323.11 68.9724C321.352 68.4854 319.473 67.1547 317.8 68.403C316.385 69.4582 315.461 71.1876 314.371 72.6568C311.093 77.0747 307.826 81.501 304.583 85.9444C302.716 88.5027 300.901 91.0994 299.066 93.6809C298.206 94.8902 299.095 95.5948 299.86 96.2992C302.275 98.5227 304.719 100.714 307.127 102.944C311.012 106.542 313.804 110.984 316.595 115.41C320.425 121.485 322.558 128.245 324.205 135.159C324.766 137.515 324.993 139.969 325.173 142.393C325.477 146.488 325.857 150.6 325.763 154.695C325.682 158.239 324.928 161.764 324.574 165.307C323.926 171.79 321.868 177.907 319.772 184.006C317.754 189.876 315.151 195.502 311.892 200.783C308.361 206.502 304.924 212.313 300.923 217.696C296.988 222.992 292.708 228.07 287.346 232.117C284.502 234.263 281.938 236.784 279.279 239.171C275.793 242.301 272.296 245.421 268.892 248.64C267.631 249.832 266.727 251.407 265.451 252.58C264.79 253.188 263.633 253.651 262.769 253.555C261.468 253.41 261.152 252.12 260.907 250.93C259.914 246.115 260.303 241.243 260.306 236.395C260.308 230.923 260.311 225.439 260.678 219.985C260.858 217.304 260.656 214.757 259.936 212.242C259.219 209.741 258.559 208.16 255.281 208.356C253.258 208.477 251.213 208.435 249.214 208.72C247.604 208.949 246.67 210.195 246.302 211.739C246.079 212.674 245.991 213.659 245.974 214.625C245.846 221.846 245.952 229.078 245.57 236.285C245.33 240.816 244.402 245.313 243.699 249.812C243.599 250.446 243.129 251.139 242.627 251.562C242.118 251.989 241.51 252.113 240.775 251.441C235.836 246.919 230.717 242.591 225.853 237.993C221.006 233.41 216.367 228.605 211.676 223.86C208.049 220.193 204.487 216.463 200.887 212.769C197.221 209.008 194.142 204.805 191.56 200.243C188.747 195.271 186.328 190.106 184.834 184.58C183.835 180.885 183.095 177.118 182.331 173.364C181.301 168.297 181.133 163.141 181.424 158.014C181.657 153.921 182.519 149.868 182.933 145.781C183.53 139.883 185.682 134.43 187.797 129.013C189.79 123.911 192.6 119.179 195.675 114.612C199.319 109.201 203.575 104.31 208.465 100.068C212.658 96.4302 217.291 93.2956 221.773 89.9983C223.211 88.9404 224.796 88.0845 226.3 87.1146C227.592 86.2812 227.875 85.2171 227.185 83.8243C224.351 78.1036 221.502 72.3903 218.675 66.6661C217.784 64.8628 216.899 63.0542 216.1 61.2096C215.585 60.0225 214.682 59.6298 213.537 59.7681C211.382 60.0287 209.238 60.3849 207.09 60.707C204.993 61.0213 202.869 61.2161 200.808 61.6854C195.393 62.9185 189.938 64.0465 184.621 65.628C175.147 68.446 166.048 72.2337 157.323 76.9195C150.395 80.64 143.615 84.5899 137.334 89.3319C133.231 92.4301 129.151 95.574 125.241 98.9097C121.236 102.327 117.202 105.771 113.63 109.619C108.267 115.397 103.073 121.363 98.2242 127.574C93.7544 133.3 89.5099 139.259 85.7592 145.473C81.6974 152.203 78.1266 159.252 74.6987 166.335C70.8504 174.286 67.6016 182.514 65.2208 191.04C63.4116 197.519 61.6594 204.022 60.1745 210.581C59.0666 215.474 58.3634 220.463 57.6015 225.428C57.1528 228.352 56.8812 231.308 56.6388 234.258C56.3588 237.665 56.1441 241.079 56.0008 244.494C55.8337 248.478 55.6506 252.469 55.7033 256.453C55.7555 260.398 55.9755 264.35 56.3365 268.279C56.7268 272.527 57.2156 276.777 57.9366 280.98C58.711 285.494 59.7062 289.978 60.7868 294.431C61.9399 299.183 63.0885 303.956 64.6356 308.588C66.4039 313.881 68.5167 319.067 70.6445 324.232C74.619 333.879 80.0465 342.735 85.9389 351.296C88.3037 354.732 91.0039 357.957 93.7513 361.104C96.8491 364.652 100.132 368.043 103.417 371.421C104.667 372.706 106.118 373.801 107.528 374.919C109.173 376.223 110.374 379.656 109.634 381.422C108.715 383.616 106.852 385.402 104.184 384.886C102.607 384.582 100.925 383.74 99.7477 382.647C95.9792 379.15 92.2089 375.611 88.8402 371.74C84.4948 366.746 80.24 361.62 76.4907 356.175C72.3075 350.101 68.4016 343.779 64.9933 337.243C61.7847 331.09 59.1764 324.595 56.6863 318.104C54.6116 312.696 52.954 307.114 51.3716 301.536C50.2465 297.569 49.5045 293.489 48.6824 289.442C47.9743 285.954 47.3609 282.447 46.7725 278.937C46.4784 277.183 46.2702 275.408 46.1355 273.634C45.8765 270.225 45.603 266.813 45.5059 263.397C45.3278 257.132 45.1193 250.861 45.2159 244.597C45.2932 239.581 45.6149 234.551 46.1717 229.565C46.8044 223.9 47.6244 218.239 48.7221 212.646C49.8289 207.007 51.2624 201.423 52.7643 195.872C54.1135 190.886 55.5892 185.92 57.3033 181.049C59.1236 175.875 61.2054 170.788 63.3317 165.73C65.1167 161.483 66.9329 157.228 69.0914 153.166C71.8503 147.974 74.8007 142.865 77.9724 137.916C81.7263 132.057 85.7216 126.347 89.7771 120.691C91.7466 117.945 94.0033 115.387 96.2852 112.885C100.835 107.897 105.29 102.796 110.161 98.1356C114.993 93.5132 120.176 89.2335 125.417 85.0706C129.69 81.6769 134.276 78.6775 138.802 75.4237ZM190.91 177.969C191.335 179.756 191.676 181.568 192.199 183.325C193.703 188.377 195.623 193.258 198.331 197.809C201.581 203.271 205.754 207.976 210.511 212.114C212.95 214.236 215.801 215.901 218.561 217.621C219.072 217.939 220.396 217.818 220.725 217.406C221.765 216.102 222.597 214.608 223.352 213.108C225.711 208.425 227.337 203.515 228.554 198.383C229.882 192.784 230.415 187.127 230.593 181.461C230.739 176.781 230.224 172.055 229.683 167.386C229.174 163 228.374 158.635 227.475 154.308C226.181 148.075 224.041 142.083 221.422 136.299C218.873 130.67 215.693 125.362 211.746 120.592C209.833 118.281 207.567 116.249 205.343 114.219C204.993 113.9 203.635 114.002 203.388 114.357C200.172 118.988 197.562 123.974 195.39 129.166C193.256 134.264 191.407 139.48 190.522 144.965C189.829 149.26 188.908 153.57 188.786 157.893C188.652 162.628 189.237 167.392 189.679 172.128C189.852 173.991 190.486 175.811 190.91 177.969ZM315.651 137.556C315.052 134.835 314.618 132.064 313.811 129.407C312.872 126.318 311.624 123.321 310.475 120.298C309.92 118.836 309.004 118.606 307.428 119.359C301.103 122.383 295.897 126.784 291.443 132.155C287.119 137.368 283.873 143.193 281.456 149.489C278.551 157.057 277.138 164.936 276.854 173.016C276.79 174.822 276.952 176.649 277.165 178.447C277.637 182.422 277.841 186.477 278.814 190.334C280.907 198.634 284.534 206.291 289.736 213.148C290.724 214.451 291.943 214.443 292.915 213.111C295.734 209.246 298.647 205.444 301.323 201.481C304.775 196.367 307.636 190.897 309.884 185.158C311.933 179.929 313.911 174.65 314.728 169.034C315.33 164.891 316.128 160.77 316.553 156.609C316.833 153.864 316.647 151.065 316.594 148.292C316.547 145.843 316.442 143.393 316.265 140.951C316.19 139.916 315.864 138.899 315.651 137.556Z" fill="#054135"/>
<path d="M181.046 303.187C181.683 299.527 182.117 295.973 183.007 292.536C184.302 287.534 185.746 282.552 187.467 277.682C188.852 273.765 190.534 269.918 192.457 266.234C195.379 260.635 198.472 255.113 201.79 249.741C203.597 246.815 206.001 244.255 208.164 241.552C209.637 239.712 211.105 237.862 212.677 236.109C213.878 234.768 215.223 234.551 216.555 235.768C218.436 237.487 220.118 239.441 221.762 241.399C224.355 244.489 226.826 247.683 229.385 250.802C232.476 254.569 235.572 258.333 238.735 262.038C239.903 263.406 241.508 264.443 242.489 265.915C244.112 268.35 246.313 268.672 248.909 268.529C251.235 268.4 253.576 268.452 255.907 268.52C257.296 268.561 258.364 268.039 259.304 267.096C262.038 264.354 264.757 261.598 267.521 258.887C270.717 255.751 273.993 252.697 277.16 249.532C280.214 246.48 283.179 243.338 286.166 240.219C286.806 239.552 287.399 238.834 287.967 238.103C289.929 235.577 293.125 236.406 294.418 239.18C296.178 242.955 297.962 246.731 299.465 250.611C302.105 257.424 304.725 264.254 306.998 271.193C308.689 276.354 309.949 281.669 311.158 286.97C312.292 291.943 313.224 296.971 314.019 302.01C314.554 305.398 314.836 308.841 314.986 312.27C315.295 319.337 315.608 326.413 315.593 333.484C315.582 338.285 315.174 343.102 314.653 347.881C314.106 352.898 313.404 357.916 312.416 362.863C311.417 367.859 310.168 372.825 308.697 377.704C306.727 384.239 304.602 390.739 302.226 397.137C300.746 401.123 298.847 404.982 296.84 408.74C293.353 415.267 289.909 421.846 285.93 428.072C282.8 432.972 278.95 437.421 275.307 441.98C273.178 444.645 270.993 447.305 268.542 449.665C264.319 453.733 259.888 457.588 255.502 461.485C253.86 462.944 252.208 464.439 250.366 465.614C248.355 466.897 246.34 466.121 244.83 464.258C243.731 462.902 242.258 461.852 240.973 460.643C237.192 457.087 233.346 453.596 229.664 449.94C224.254 444.569 219.515 438.627 214.992 432.489C209.869 425.536 205.266 418.273 201.191 410.67C196.944 402.746 193.271 394.574 190.214 386.099C188.019 380.016 185.991 373.905 184.556 367.605C183.34 362.265 182.091 356.929 181.093 351.547C180.516 348.438 180.35 345.247 180.107 342.085C179.828 338.466 179.558 334.839 179.481 331.212C179.376 326.211 179.34 321.202 179.496 316.203C179.597 312.934 180.065 309.674 180.425 306.416C180.539 305.383 180.834 304.369 181.046 303.187ZM304.832 344.396C304.938 344.067 305.119 343.743 305.139 343.409C305.369 339.573 305.729 335.738 305.751 331.9C305.784 326.165 305.625 320.427 305.447 314.693C305.359 311.86 305.072 309.032 304.826 306.207C304.425 301.608 304.03 297.008 303.543 292.418C303.201 289.191 302.842 285.956 302.255 282.767C301.425 278.261 300.39 273.792 299.4 269.317C299.31 268.91 298.905 268.572 298.646 268.202C298.374 268.439 298.018 268.627 297.846 268.922C297.151 270.113 296.611 271.405 295.836 272.537C292.141 277.937 288.897 283.59 286.188 289.545C284.93 292.31 283.859 295.162 282.53 297.891C281.237 300.546 279.758 303.113 278.287 305.677C277.763 306.591 276.138 306.689 275.597 305.921C274.502 304.367 273.43 302.795 272.377 301.211C269.504 296.889 266.625 292.57 263.799 288.217C263.191 287.281 262.703 287.441 262.139 288.139C261.895 288.442 261.734 288.815 261.557 289.167C260.208 291.843 258.832 294.506 257.534 297.206C256.984 298.351 256.136 299.617 256.234 300.758C256.509 303.954 257.164 307.122 257.747 310.286C258.444 314.07 259.252 317.834 259.955 321.617C260.632 325.27 261.193 328.944 261.884 332.595C262.794 337.404 263.798 342.196 264.731 347.002C265.409 350.492 266.004 353.998 266.699 357.485C267.382 360.904 268.194 364.298 268.861 367.72C269.657 371.804 270.306 375.916 271.115 379.996C272.008 384.492 272.987 388.971 273.972 393.447C274.965 397.962 276.065 402.453 277.009 406.978C277.405 408.876 278.526 410.777 277.74 412.744C277.105 414.334 276.212 415.861 275.211 417.257C270.951 423.198 266.705 429.153 262.262 434.955C259.449 438.629 256.318 442.059 253.286 445.562C252.357 446.635 251.264 447.563 250.286 448.595C249.029 449.924 247.799 449.987 246.466 448.625C243.891 445.993 241.204 443.45 238.845 440.634C235.154 436.228 231.516 431.755 228.2 427.066C225.578 423.357 223.496 419.27 221.126 415.38C220.516 414.377 220.061 413.475 220.479 412.23C221.107 410.362 221.641 408.453 222.08 406.531C223.011 402.453 223.849 398.353 224.735 394.265C225.652 390.032 226.625 385.812 227.493 381.569C228.315 377.549 229.008 373.503 229.8 369.476C230.599 365.412 231.492 361.366 232.267 357.298C233.065 353.109 233.739 348.897 234.526 344.707C235.107 341.618 235.798 338.551 236.411 335.468C237.035 332.329 237.615 329.18 238.229 326.038C238.995 322.116 239.777 318.196 240.552 314.275C241.163 311.187 241.789 308.102 242.383 305.011C242.95 302.061 243.67 299.175 241.846 296.267C240.879 294.726 240.554 292.786 239.902 291.04C239.778 290.706 239.497 290.213 239.253 290.192C238.857 290.157 238.255 290.327 238.046 290.625C235.771 293.859 233.606 297.172 231.306 300.388C229.769 302.537 228.102 304.597 226.418 306.635C225.354 307.924 223.477 308.002 222.499 306.613C220.879 304.315 219.029 302.141 217.694 299.688C215.585 295.815 213.783 291.772 211.926 287.766C210.586 284.877 209.206 281.991 208.128 279.001C205.997 273.09 204.077 267.103 202.003 261.171C201.914 260.916 201.018 260.657 200.75 260.818C200.328 261.073 200.064 261.656 199.83 262.147C198.327 265.288 196.621 268.357 195.417 271.611C193.424 276.998 191.603 282.461 190.002 287.977C188.535 293.032 187.48 298.195 187.065 303.48C186.657 308.678 185.733 313.851 185.583 319.052C185.427 324.468 185.793 329.913 186.176 335.328C186.522 340.212 187.089 345.088 187.761 349.939C188.347 354.16 188.955 358.409 190.022 362.525C191.702 369.005 193.608 375.441 195.738 381.787C197.373 386.657 199.268 391.471 201.469 396.11C204.419 402.326 207.615 408.44 211.01 414.425C213.611 419.009 216.472 423.483 219.605 427.718C223.46 432.93 227.474 438.071 231.875 442.821C235.984 447.255 240.643 451.188 245.167 455.221C246.197 456.138 247.614 456.734 248.954 457.163C251.016 457.823 252.04 456.003 253.168 454.856C254.741 453.259 255.996 451.354 257.492 449.674C261.47 445.208 265.628 440.895 269.476 436.321C272.433 432.806 275.167 429.082 277.753 425.282C282.287 418.618 286.469 411.733 289.554 404.247C291.589 399.31 293.809 394.434 295.543 389.392C297.321 384.223 298.64 378.894 300.096 373.617C300.795 371.085 301.467 368.535 301.939 365.954C302.585 362.43 303.069 358.874 303.548 355.322C304.024 351.793 304.408 348.251 304.832 344.396Z" fill="#054135"/>
<path d="M282.557 317.825C286.657 317.479 290.641 317.524 294.474 316.277C296.181 315.722 297.624 317.576 297.212 319.559C296.914 320.99 296.608 322.452 296.59 323.903C296.54 327.832 296.161 331.663 294.675 335.364C293.473 338.358 289.275 341.16 286.517 341.112C283.748 341.064 280.97 341.471 278.197 341.694C274.502 341.991 268.525 337.386 268.234 333.23C268.037 330.402 267.683 327.578 267.646 324.748C267.621 322.825 267.998 320.893 268.249 318.973C268.373 318.021 269.047 317.804 269.942 317.811C274.094 317.843 278.246 317.825 282.557 317.825ZM272.692 335.805C275.493 337.823 278.677 338.356 282.032 338.184C283.261 338.121 284.485 337.917 285.714 337.886C288.474 337.816 290.249 336.077 291.314 333.945C293.207 330.156 293.714 325.976 293.699 321.748C293.695 320.405 293.078 319.694 291.719 319.74C289.061 319.829 286.403 319.924 283.747 320.058C279.968 320.249 276.191 320.512 272.41 320.669C271.199 320.719 270.75 321.218 270.772 322.387C270.811 324.558 270.688 326.736 270.809 328.901C270.94 331.243 271.009 333.642 272.692 335.805Z" fill="#054135"/>
</svg>
